<svg xmlns="http://www.w3.org/2000/svg" viewBox="0 0 693 157"><path d="M 77.76574381828391 24 L 131.53148763656782 117.125 L 24 117.125 Z" fill="#D4A017"></path><path fill="#FFFFFF" d="M201.631 117.125L163.881 117.125L163.881 24L199.631 24Q209.694 24 216.381 27.156Q223.069 30.313 226.381 35.781Q229.694 41.250 229.694 48.125L229.694 48.125Q229.694 53.813 227.538 57.844Q225.381 61.875 221.694 64.375Q218.006 66.875 213.444 68L213.444 68L213.444 68.938Q218.444 69.125 222.975 71.906Q227.506 74.688 230.413 79.688Q233.319 84.688 233.319 91.750L233.319 91.750Q233.319 99 229.850 104.719Q226.381 110.438 219.350 113.781Q212.319 117.125 201.631 117.125L201.631 117.125ZM180.756 75.750L180.756 103.063L198.881 103.063Q208.069 103.063 212.163 99.500Q216.256 95.938 216.256 90.438L216.256 90.438Q216.256 86.250 214.194 82.938Q212.131 79.625 208.350 77.688Q204.569 75.750 199.444 75.750L199.444 75.750L180.756 75.750ZM180.756 37.938L180.756 63.625L197.506 63.625Q201.819 63.625 205.319 62Q208.819 60.375 210.850 57.406Q212.881 54.438 212.881 50.375L212.881 50.375Q212.881 45 209.069 41.469Q205.256 37.938 197.881 37.938L197.881 37.938L180.756 37.938Z M255.806 117.125L239.369 117.125L239.369 47.250L255.306 47.250L255.306 59L256.056 59Q257.931 52.875 262.619 49.594Q267.306 46.313 273.306 46.313L273.306 46.313Q274.619 46.313 276.338 46.438Q278.056 46.563 279.181 46.750L279.181 46.750L279.181 61.875Q278.119 61.500 275.869 61.250Q273.619 61 271.556 61L271.556 61Q266.994 61 263.431 62.938Q259.869 64.875 257.838 68.250Q255.806 71.625 255.806 76.125L255.806 76.125L255.806 117.125Z M298.606 117.125L282.169 117.125L282.169 47.250L298.606 47.250L298.606 117.125ZM290.419 37.438L290.419 37.438Q286.481 37.438 283.669 34.813Q280.856 32.188 280.856 28.500L280.856 28.500Q280.856 24.750 283.669 22.125Q286.481 19.500 290.419 19.500L290.419 19.500Q294.294 19.500 297.106 22.125Q299.919 24.750 299.919 28.438L299.919 28.438Q299.919 32.188 297.106 34.813Q294.294 37.438 290.419 37.438Z M323.969 76.250L323.969 76.250L323.969 117.125L307.531 117.125L307.531 47.250L323.656 47.250L323.656 59.188L324.469 59.188Q326.844 53.313 331.938 49.844Q337.031 46.375 344.906 46.375L344.906 46.375Q352.156 46.375 357.531 49.438Q362.906 52.500 365.875 58.406Q368.844 64.313 368.844 72.688L368.844 72.688L368.844 117.125L352.406 117.125L352.406 75.250Q352.406 68.250 348.781 64.281Q345.156 60.313 338.781 60.313L338.781 60.313Q334.469 60.313 331.125 62.188Q327.781 64.063 325.875 67.594Q323.969 71.125 323.969 76.250Z M394.206 117.125L377.769 117.125L377.769 24L394.206 24L394.206 75.313L395.394 75.313L420.456 47.250L439.706 47.250L412.644 77.438L441.269 117.125L421.581 117.125L400.206 87.250L394.206 93.688L394.206 117.125Z"></path><path fill="#D4A017" d="M460.131 117.125L443.256 117.125L443.256 24L460.131 24L460.131 63.438L503.256 63.438L503.256 24L520.131 24L520.131 117.125L503.256 117.125L503.256 77.625L460.131 77.625L460.131 117.125Z M574.244 87.813L574.244 87.813L574.244 47.250L590.681 47.250L590.681 117.125L574.744 117.125L574.744 104.688L573.994 104.688Q571.619 110.563 566.244 114.313Q560.869 118.063 552.994 118L552.994 118Q546.119 118 540.900 114.969Q535.681 111.938 532.713 106.031Q529.744 100.125 529.744 91.750L529.744 91.750L529.744 47.250L546.181 47.250L546.181 89.250Q546.181 95.813 549.838 99.750Q553.494 103.688 559.431 103.625L559.431 103.625Q563.056 103.625 566.463 101.875Q569.869 100.125 572.056 96.625Q574.244 93.125 574.244 87.813Z M636.669 118.375L636.669 118.375Q630.731 118.375 626.763 116.344Q622.794 114.313 620.388 111.469Q617.981 108.625 616.731 106.063L616.731 106.063L615.731 106.063L615.731 117.125L599.606 117.125L599.606 24L616.044 24L616.044 58.813L616.731 58.813Q617.981 56.313 620.294 53.406Q622.606 50.500 626.575 48.438Q630.544 46.375 636.731 46.375L636.731 46.375Q644.794 46.375 651.294 50.500Q657.794 54.625 661.638 62.625Q665.481 70.625 665.481 82.313L665.481 82.313Q665.481 93.813 661.731 101.875Q657.981 109.938 651.450 114.156Q644.919 118.375 636.669 118.375ZM632.169 104.875L632.169 104.875Q637.606 104.875 641.263 101.938Q644.919 99 646.794 93.875Q648.669 88.750 648.669 82.250L648.669 82.250Q648.669 75.750 646.794 70.688Q644.919 65.625 641.294 62.750Q637.669 59.875 632.169 59.875L632.169 59.875Q626.856 59.875 623.200 62.625Q619.544 65.375 617.638 70.406Q615.731 75.438 615.731 82.250L615.731 82.250Q615.731 89 617.638 94.094Q619.544 99.188 623.231 102.031Q626.919 104.875 632.169 104.875Z"></path></svg>
